<?xml version="1.0" standalone="no"?>
<!DOCTYPE svg PUBLIC "-//W3C//DTD SVG 20010904//EN"
 "http://www.w3.org/TR/2001/REC-SVG-20010904/DTD/svg10.dtd">
<svg version="1.0" xmlns="http://www.w3.org/2000/svg"
 width="950.000000pt" height="950.000000pt" viewBox="0 0 950.000000 950.000000"
 preserveAspectRatio="xMidYMid meet">
<metadata>
Created by potrace 1.11, written by Peter Selinger 2001-2013
</metadata>
<g transform="translate(0.000000,950.000000) scale(0.100000,-0.100000)"
fill="#000000" stroke="none">
<path d="M4489 9046 c-4 -3 -55 -9 -199 -21 -19 -2 -55 -6 -80 -10 -25 -3 -56
-8 -70 -10 -54 -8 -116 -18 -135 -21 -11 -3 -56 -12 -100 -20 -111 -21 -329
-79 -460 -121 -504 -162 -989 -426 -1400 -761 -85 -69 -103 -85 -204 -178
-471 -432 -851 -985 -1086 -1579 -57 -144 -139 -385 -149 -439 -2 -12 -13 -55
-25 -96 -11 -41 -22 -86 -25 -100 -3 -14 -16 -81 -29 -150 -14 -69 -30 -168
-37 -220 -7 -52 -14 -103 -15 -112 -27 -139 -26 -831 0 -968 2 -9 6 -41 10
-71 9 -77 35 -237 45 -284 5 -22 12 -56 15 -75 3 -19 13 -62 21 -95 9 -33 17
-67 19 -77 20 -98 136 -439 208 -607 53 -125 193 -405 229 -458 15 -23 28 -44
28 -48 0 -11 143 -230 216 -332 257 -353 567 -669 919 -935 62 -47 313 -218
320 -218 2 0 41 -23 87 -51 125 -77 464 -240 628 -302 195 -74 451 -153 559
-173 12 -3 51 -11 85 -19 33 -8 77 -17 96 -20 19 -3 58 -10 85 -15 51 -10 72
-13 210 -30 245 -32 821 -35 995 -6 14 3 50 7 81 11 31 3 65 7 75 9 11 2 39 7
64 10 42 7 164 30 220 42 14 3 36 7 50 10 65 14 264 69 364 101 668 216 1272
590 1761 1093 159 163 221 234 356 410 191 249 401 603 514 870 15 36 33 79
41 95 95 221 220 641 250 843 3 20 7 44 9 52 3 8 7 33 10 55 4 22 8 51 11 65
2 14 7 52 10 85 3 33 8 63 10 66 24 41 24 926 -1 969 -1 3 -6 34 -9 70 -4 36
-9 74 -11 85 -3 11 -7 36 -9 55 -3 19 -10 60 -16 90 -6 30 -13 66 -16 80 -2
14 -7 36 -10 50 -3 14 -8 36 -10 50 -13 72 -82 313 -126 440 -81 234 -218 541
-317 708 -17 29 -31 54 -31 56 0 7 -143 231 -188 296 -256 364 -599 725 -907
955 -22 16 -42 32 -45 36 -23 26 -304 210 -475 312 -141 83 -522 257 -665 303
-25 8 -54 19 -65 24 -60 28 -440 129 -580 155 -52 9 -159 26 -195 31 -19 2
-45 6 -58 9 -13 2 -53 7 -90 10 -37 4 -78 9 -92 12 -27 6 -666 14 -671 9z"/>
</g>
</svg>
